<svg width="111" height="17" viewBox="0 0 111 17" fill="none" xmlns="http://www.w3.org/2000/svg">
<path fill-rule="evenodd" clip-rule="evenodd" d="M93.9179 3.444C94.2659 3.756 94.7099 3.912 95.2499 3.912C95.7779 3.912 96.2099 3.756 96.5459 3.444C96.8939 3.12 97.0679 2.724 97.0679 2.256C97.0679 1.776 96.8939 1.38 96.5459 1.068C96.2099 0.744001 95.7779 0.582001 95.2499 0.582001C94.7099 0.582001 94.2659 0.744001 93.9179 1.068C93.5819 1.38 93.4139 1.776 93.4139 2.256C93.4139 2.724 93.5819 3.12 93.9179 3.444ZM93.7019 15H96.7799V4.956H93.7019V15ZM44.1884 4.848C45.3404 4.848 46.2644 5.232 46.9604 6C47.6564 6.756 48.0044 7.8 48.0044 9.132V15H44.9444V9.546C44.9444 8.874 44.7704 8.352 44.4224 7.98C44.0744 7.608 43.6064 7.422 43.0184 7.422C42.4304 7.422 41.9624 7.608 41.6144 7.98C41.2664 8.352 41.0924 8.874 41.0924 9.546V15H38.0144V1.68H41.0924V6.306C41.4044 5.862 41.8304 5.508 42.3704 5.244C42.9104 4.98 43.5164 4.848 44.1884 4.848ZM26.504 9.978C26.504 8.934 26.714 8.022 27.134 7.242C27.566 6.462 28.16 5.862 28.916 5.442C29.684 5.022 30.56 4.812 31.544 4.812C32.804 4.812 33.854 5.142 34.694 5.802C35.546 6.462 36.104 7.392 36.368 8.592H33.092C32.816 7.824 32.282 7.44 31.49 7.44C30.926 7.44 30.476 7.662 30.14 8.106C29.804 8.538 29.636 9.162 29.636 9.978C29.636 10.794 29.804 11.424 30.14 11.868C30.476 12.3 30.926 12.516 31.49 12.516C32.282 12.516 32.816 12.132 33.092 11.364H36.368C36.104 12.54 35.546 13.464 34.694 14.136C33.842 14.808 32.792 15.144 31.544 15.144C30.56 15.144 29.684 14.934 28.916 14.514C28.16 14.094 27.566 13.494 27.134 12.714C26.714 11.934 26.504 11.022 26.504 9.978ZM59.5573 10.716C59.5933 10.404 59.6113 10.104 59.6113 9.816C59.6113 8.808 59.3953 7.926 58.9633 7.17C58.5433 6.414 57.9553 5.832 57.1993 5.424C56.4433 5.016 55.5793 4.812 54.6073 4.812C53.6113 4.812 52.7293 5.022 51.9613 5.442C51.1933 5.862 50.5933 6.462 50.1613 7.242C49.7413 8.022 49.5313 8.934 49.5313 9.978C49.5313 11.022 49.7473 11.934 50.1793 12.714C50.6113 13.494 51.2113 14.094 51.9793 14.514C52.7473 14.934 53.6233 15.144 54.6073 15.144C55.4233 15.144 56.1613 14.994 56.8213 14.694C57.4813 14.394 58.0273 13.98 58.4593 13.452C58.9033 12.924 59.2093 12.33 59.3773 11.67H56.1013C55.8013 12.318 55.2673 12.642 54.4993 12.642C53.9833 12.642 53.5453 12.48 53.1853 12.156C52.8373 11.82 52.6393 11.34 52.5913 10.716H59.5573ZM55.9213 7.746C56.2813 8.058 56.4613 8.478 56.4613 9.006H52.6093C52.6933 8.454 52.9093 8.028 53.2573 7.728C53.6173 7.428 54.0553 7.278 54.5713 7.278C55.1113 7.278 55.5613 7.434 55.9213 7.746ZM60.6231 9.978C60.6231 8.934 60.8331 8.022 61.2531 7.242C61.6851 6.462 62.2791 5.862 63.0351 5.442C63.8031 5.022 64.6791 4.812 65.6631 4.812C66.9231 4.812 67.9731 5.142 68.8131 5.802C69.6651 6.462 70.2231 7.392 70.4871 8.592H67.2111C66.9351 7.824 66.4011 7.44 65.6091 7.44C65.0451 7.44 64.5951 7.662 64.2591 8.106C63.9231 8.538 63.7551 9.162 63.7551 9.978C63.7551 10.794 63.9231 11.424 64.2591 11.868C64.5951 12.3 65.0451 12.516 65.6091 12.516C66.4011 12.516 66.9351 12.132 67.2111 11.364H70.4871C70.2231 12.54 69.6651 13.464 68.8131 14.136C67.9611 14.808 66.9111 15.144 65.6631 15.144C64.6791 15.144 63.8031 14.934 63.0351 14.514C62.2791 14.094 61.6851 13.494 61.2531 12.714C60.8331 11.934 60.6231 11.022 60.6231 9.978ZM75.2116 10.788L78.2716 15H82.0876L77.8756 9.996L82.0516 4.956H78.2536L75.2116 9.042V1.68H72.1336V15H75.2116V10.788ZM91.0005 7.404V9.96H83.0805V7.404H91.0005ZM104.609 12.39V15H103.043C101.927 15 101.057 14.73 100.433 14.19C99.8085 13.638 99.4965 12.744 99.4965 11.508V7.512H98.2725V4.956H99.4965V2.508H102.575V4.956H104.591V7.512H102.575V11.544C102.575 11.844 102.647 12.06 102.791 12.192C102.935 12.324 103.175 12.39 103.511 12.39H104.609ZM110.013 10.536L110.373 1.914H107.043L107.403 10.536H110.013ZM107.421 14.676C107.769 14.988 108.213 15.144 108.753 15.144C109.281 15.144 109.713 14.988 110.049 14.676C110.397 14.352 110.571 13.956 110.571 13.488C110.571 13.008 110.397 12.606 110.049 12.282C109.713 11.958 109.281 11.796 108.753 11.796C108.213 11.796 107.769 11.958 107.421 12.282C107.085 12.606 106.917 13.008 106.917 13.488C106.917 13.956 107.085 14.352 107.421 14.676ZM3.41421 4.19239L0.585785 7.02081L9.5889 16.0239L21.6097 4.00311L18.7813 1.17469L9.5889 10.3671L3.41421 4.19239Z" fill="white"/>
</svg>
